ffprobe version n2.6.1 Copyright (c) 2007-2015 the FFmpeg developers
  built with gcc 4.8 (Ubuntu 4.8.2-19ubuntu1)
  configuration: --prefix=/opt/ffmpeg --extra-cflags=-I/opt/ffmpeg/include --extra-ldflags=-L/opt/ffmpeg/lib --extra-libs=-ldl --enable-gpl --enable-libass --enable-libfdk-aac --enable-libfreetype --enable-libmp3lame --enable-libtheora --enable-libvorbis --enable-libvpx --enable-libx264 --enable-libx265 --enable-nonfree
  libavutil      54. 20.100 / 54. 20.100
  libavcodec     56. 26.100 / 56. 26.100
  libavformat    56. 25.101 / 56. 25.101
  libavdevice    56.  4.100 / 56.  4.100
  libavfilter     5. 11.102 /  5. 11.102
  libswscale      3.  1.101 /  3.  1.101
  libswresample   1.  1.100 /  1.  1.100
  libpostproc    53.  3.100 / 53.  3.100
[matroska,webm @ 0x2cbdc60] Could not find codec parameters for stream 3 (Subtitle: hdmv_pgs_subtitle): unspecified size
Consider increasing the value for the 'analyzeduration' and 'probesize' options
Input #0, matroska,webm, from 'Ghost_in_the_Shell_Arise_Ep_1_[1080p,BluRay,aac,x264]_-_THORA.mkv':
  Metadata:
    title           : Ghost in the Shell Arise - border1: Ghost Pain
    encoder         : libebml v1.2.1 + libmatroska v1.1.1
    creation_time   : 2013-07-03 20:04:34
  Duration: 00:58:22.55, start: 0.000000, bitrate: 10726 kb/s
    Stream #0:0(jpn): Video: h264 (High 10), yuv420p10le(tv, bt709/unknown/unknown), 1920x1080, SAR 1:1 DAR 16:9, 23.98 fps, 23.98 tbr, 1k tbn, 47.95 tbc (default)
    Stream #0:1(jpn): Audio: aac (LC), 48000 Hz, 5.1, fltp (default)
    Stream #0:2(eng): Subtitle: ass (default)
    Stream #0:3(chi): Subtitle: hdmv_pgs_subtitle
    Stream #0:4: Attachment: ttf
    Metadata:
      filename        : MyriadPro-Ar_0.ttf
      mimetype        : application/x-truetype-font
    Stream #0:5: Attachment: ttf
    Metadata:
      filename        : MyriadPro-ArI_0.ttf
      mimetype        : application/x-truetype-font
    Stream #0:6: Attachment: ttf
    Metadata:
      filename        : arial.ttf
      mimetype        : application/x-truetype-font
    Stream #0:7: Attachment: ttf
    Metadata:
      filename        : tahoma.ttf
      mimetype        : application/x-truetype-font
    Stream #0:8: Attachment: ttf
    Metadata:
      filename        : ITCFranklinGothicStd-MdCd.otf
      mimetype        : application/x-truetype-font
Unsupported codec with id 98304 for input stream 4
Unsupported codec with id 98304 for input stream 5
Unsupported codec with id 98304 for input stream 6
Unsupported codec with id 98304 for input stream 7
Unsupported codec with id 98304 for input stream 8
